<mxfile host="app.diagrams.net" agent="Mozilla/5.0 (Macintosh; Intel Mac OS X 10_15_7) AppleWebKit/537.36 (KHTML, like Gecko) Chrome/137.0.0.0 Safari/537.36" version="27.1.6">
  <diagram name="Page-1" id="GusXGzR98Y7uL8Qt9jAa">
    <mxGraphModel>
      <root>
        <mxCell id="0" />
        <mxCell id="1" parent="0" />
        <mxCell id="2" value="Front-End (Progressive Web App or CRM Interface)" style="shape=umlLifeline;perimeter=lifelinePerimeter;whiteSpace=wrap;container=1;dropTarget=0;collapsible=0;recursiveResize=0;outlineConnect=0;portConstraint=eastwest;newEdgeStyle={&quot;edgeStyle&quot;:&quot;elbowEdgeStyle&quot;,&quot;elbow&quot;:&quot;vertical&quot;,&quot;curved&quot;:0,&quot;rounded&quot;:0};size=65;" vertex="1" parent="1">
          <mxGeometry width="391" height="1684" as="geometry" />
        </mxCell>
        <mxCell id="3" value="Azure API Management (APIM)" style="shape=umlLifeline;perimeter=lifelinePerimeter;whiteSpace=wrap;container=1;dropTarget=0;collapsible=0;recursiveResize=0;outlineConnect=0;portConstraint=eastwest;newEdgeStyle={&quot;edgeStyle&quot;:&quot;elbowEdgeStyle&quot;,&quot;elbow&quot;:&quot;vertical&quot;,&quot;curved&quot;:0,&quot;rounded&quot;:0};size=65;" vertex="1" parent="1">
          <mxGeometry x="839" width="243" height="1684" as="geometry" />
        </mxCell>
        <mxCell id="4" value="Azure Function App" style="shape=umlLifeline;perimeter=lifelinePerimeter;whiteSpace=wrap;container=1;dropTarget=0;collapsible=0;recursiveResize=0;outlineConnect=0;portConstraint=eastwest;newEdgeStyle={&quot;edgeStyle&quot;:&quot;elbowEdgeStyle&quot;,&quot;elbow&quot;:&quot;vertical&quot;,&quot;curved&quot;:0,&quot;rounded&quot;:0};size=65;" vertex="1" parent="1">
          <mxGeometry x="1237" width="163" height="1684" as="geometry" />
        </mxCell>
        <mxCell id="5" value="Azure Cosmos DB" style="shape=umlLifeline;perimeter=lifelinePerimeter;whiteSpace=wrap;container=1;dropTarget=0;collapsible=0;recursiveResize=0;outlineConnect=0;portConstraint=eastwest;newEdgeStyle={&quot;edgeStyle&quot;:&quot;elbowEdgeStyle&quot;,&quot;elbow&quot;:&quot;vertical&quot;,&quot;curved&quot;:0,&quot;rounded&quot;:0};size=65;" vertex="1" parent="1">
          <mxGeometry x="1626" width="151" height="1684" as="geometry" />
        </mxCell>
        <mxCell id="6" value="Azure AI Search" style="shape=umlLifeline;perimeter=lifelinePerimeter;whiteSpace=wrap;container=1;dropTarget=0;collapsible=0;recursiveResize=0;outlineConnect=0;portConstraint=eastwest;newEdgeStyle={&quot;edgeStyle&quot;:&quot;elbowEdgeStyle&quot;,&quot;elbow&quot;:&quot;vertical&quot;,&quot;curved&quot;:0,&quot;rounded&quot;:0};size=65;" vertex="1" parent="1">
          <mxGeometry x="2009" width="150" height="1684" as="geometry" />
        </mxCell>
        <mxCell id="7" value="Azure OpenAI GPT-4o Mini" style="shape=umlLifeline;perimeter=lifelinePerimeter;whiteSpace=wrap;container=1;dropTarget=0;collapsible=0;recursiveResize=0;outlineConnect=0;portConstraint=eastwest;newEdgeStyle={&quot;edgeStyle&quot;:&quot;elbowEdgeStyle&quot;,&quot;elbow&quot;:&quot;vertical&quot;,&quot;curved&quot;:0,&quot;rounded&quot;:0};size=65;" vertex="1" parent="1">
          <mxGeometry x="2270" width="215" height="1684" as="geometry" />
        </mxCell>
        <mxCell id="8" value="Azure Key Vault" style="shape=umlLifeline;perimeter=lifelinePerimeter;whiteSpace=wrap;container=1;dropTarget=0;collapsible=0;recursiveResize=0;outlineConnect=0;portConstraint=eastwest;newEdgeStyle={&quot;edgeStyle&quot;:&quot;elbowEdgeStyle&quot;,&quot;elbow&quot;:&quot;vertical&quot;,&quot;curved&quot;:0,&quot;rounded&quot;:0};size=65;" vertex="1" parent="1">
          <mxGeometry x="2597" width="150" height="1684" as="geometry" />
        </mxCell>
        <mxCell id="9" value="alt" style="shape=umlFrame;dashed=1;pointerEvents=0;dropTarget=0;strokeColor=#B3B3B3;height=20;width=30" vertex="1" parent="1">
          <mxGeometry x="1101" y="319" width="1288" height="533" as="geometry" />
        </mxCell>
        <mxCell id="10" value="[/ingest]" style="text;strokeColor=none;fillColor=none;align=center;verticalAlign=middle;whiteSpace=wrap;" vertex="1" parent="9">
          <mxGeometry x="30" width="1258" height="20" as="geometry" />
        </mxCell>
        <mxCell id="11" value="alt" style="shape=umlFrame;dashed=1;pointerEvents=0;dropTarget=0;strokeColor=#B3B3B3;height=20;width=30" vertex="1" parent="1">
          <mxGeometry x="1210" y="862" width="1179" height="213" as="geometry" />
        </mxCell>
        <mxCell id="12" value="[/summary or /askQuestion]" style="text;strokeColor=none;fillColor=none;align=center;verticalAlign=middle;whiteSpace=wrap;" vertex="1" parent="11">
          <mxGeometry x="30" width="1149" height="20" as="geometry" />
        </mxCell>
        <mxCell id="13" value="" style="shape=umlFrame;dashed=1;pointerEvents=0;dropTarget=0;strokeColor=#B3B3B3;height=20;width=0" vertex="1" parent="1">
          <mxGeometry x="211" y="1177" width="2446" height="412" as="geometry" />
        </mxCell>
        <mxCell id="14" value="" style="text;strokeColor=none;fillColor=none;align=center;verticalAlign=middle;whiteSpace=wrap;" vertex="1" parent="13">
          <mxGeometry width="2446" height="20" as="geometry" />
        </mxCell>
        <mxCell id="15" value="Sends HTTPS request with AAD JWT (POST /ingest, GET /summary, or GET/POST /askQuestion)" style="verticalAlign=bottom;edgeStyle=elbowEdgeStyle;elbow=vertical;curved=0;rounded=0;endArrow=block;" edge="1" parent="1" source="2" target="3">
          <mxGeometry relative="1" as="geometry">
            <Array as="points">
              <mxPoint x="587" y="101" />
            </Array>
          </mxGeometry>
        </mxCell>
        <mxCell id="16" value="Validates AAD JWT for user authentication" style="curved=1;endArrow=block;" edge="1" parent="1" source="3" target="3">
          <mxGeometry relative="1" as="geometry">
            <Array as="points">
              <mxPoint x="1012" y="147" />
              <mxPoint x="1012" y="177" />
            </Array>
          </mxGeometry>
        </mxCell>
        <mxCell id="17" value="Adds rate limiting, CORS headers, and security filtering" style="curved=1;endArrow=block;" edge="1" parent="1" source="3" target="3">
          <mxGeometry relative="1" as="geometry">
            <Array as="points">
              <mxPoint x="1012" y="223" />
              <mxPoint x="1012" y="253" />
            </Array>
          </mxGeometry>
        </mxCell>
        <mxCell id="18" value="Forwards validated request" style="verticalAlign=bottom;edgeStyle=elbowEdgeStyle;elbow=vertical;curved=0;rounded=0;endArrow=block;" edge="1" parent="1" source="3" target="4">
          <mxGeometry relative="1" as="geometry">
            <Array as="points">
              <mxPoint x="1148" y="299" />
            </Array>
          </mxGeometry>
        </mxCell>
        <mxCell id="19" value="If input is audio" style="curved=1;endArrow=block;" edge="1" parent="1" source="4" target="4">
          <mxGeometry relative="1" as="geometry">
            <Array as="points">
              <mxPoint x="1370" y="390" />
              <mxPoint x="1370" y="420" />
            </Array>
          </mxGeometry>
        </mxCell>
        <mxCell id="20" value="Calls Azure Speech SDK to transcribe to text" style="curved=1;endArrow=block;" edge="1" parent="1" source="4" target="4">
          <mxGeometry relative="1" as="geometry">
            <Array as="points">
              <mxPoint x="1370" y="466" />
              <mxPoint x="1370" y="496" />
            </Array>
          </mxGeometry>
        </mxCell>
        <mxCell id="21" value="If input is image" style="curved=1;endArrow=block;" edge="1" parent="1" source="4" target="4">
          <mxGeometry relative="1" as="geometry">
            <Array as="points">
              <mxPoint x="1370" y="542" />
              <mxPoint x="1370" y="572" />
            </Array>
          </mxGeometry>
        </mxCell>
        <mxCell id="22" value="Calls Azure Computer Vision Read OCR API to extract text" style="curved=1;endArrow=block;" edge="1" parent="1" source="4" target="4">
          <mxGeometry relative="1" as="geometry">
            <Array as="points">
              <mxPoint x="1370" y="618" />
              <mxPoint x="1370" y="648" />
            </Array>
          </mxGeometry>
        </mxCell>
        <mxCell id="23" value="Sends transcribed/extracted text to GPT-4o Mini with structured prompt" style="verticalAlign=bottom;edgeStyle=elbowEdgeStyle;elbow=vertical;curved=0;rounded=0;endArrow=block;" edge="1" parent="1" source="4" target="7">
          <mxGeometry relative="1" as="geometry">
            <Array as="points">
              <mxPoint x="1857" y="694" />
            </Array>
          </mxGeometry>
        </mxCell>
        <mxCell id="24" value="Returns structured data in JSON format" style="verticalAlign=bottom;edgeStyle=elbowEdgeStyle;elbow=vertical;curved=0;rounded=0;dashed=1;dashPattern=2 3;endArrow=block;" edge="1" parent="1" source="7" target="4">
          <mxGeometry relative="1" as="geometry">
            <Array as="points">
              <mxPoint x="1860" y="740" />
            </Array>
          </mxGeometry>
        </mxCell>
        <mxCell id="25" value="Saves structured data to Azure Cosmos DB" style="verticalAlign=bottom;edgeStyle=elbowEdgeStyle;elbow=vertical;curved=0;rounded=0;endArrow=block;" edge="1" parent="1" source="4" target="5">
          <mxGeometry relative="1" as="geometry">
            <Array as="points">
              <mxPoint x="1519" y="786" />
            </Array>
          </mxGeometry>
        </mxCell>
        <mxCell id="26" value="Pushes flattened string version for semantic retrieval" style="verticalAlign=bottom;edgeStyle=elbowEdgeStyle;elbow=vertical;curved=0;rounded=0;endArrow=block;" edge="1" parent="1" source="4" target="6">
          <mxGeometry relative="1" as="geometry">
            <Array as="points">
              <mxPoint x="1710" y="832" />
            </Array>
          </mxGeometry>
        </mxCell>
        <mxCell id="27" value="Builds user-specific prompt" style="curved=1;endArrow=block;" edge="1" parent="1" source="4" target="4">
          <mxGeometry relative="1" as="geometry">
            <Array as="points">
              <mxPoint x="1370" y="933" />
              <mxPoint x="1370" y="963" />
            </Array>
          </mxGeometry>
        </mxCell>
        <mxCell id="28" value="Calls GPT-4o Mini with dataSources block for RAG" style="verticalAlign=bottom;edgeStyle=elbowEdgeStyle;elbow=vertical;curved=0;rounded=0;endArrow=block;" edge="1" parent="1" source="4" target="7">
          <mxGeometry relative="1" as="geometry">
            <Array as="points">
              <mxPoint x="1857" y="1009" />
            </Array>
          </mxGeometry>
        </mxCell>
        <mxCell id="29" value="Retrieves context and responds with natural language output" style="verticalAlign=bottom;edgeStyle=elbowEdgeStyle;elbow=vertical;curved=0;rounded=0;dashed=1;dashPattern=2 3;endArrow=block;" edge="1" parent="1" source="7" target="4">
          <mxGeometry relative="1" as="geometry">
            <Array as="points">
              <mxPoint x="1860" y="1055" />
            </Array>
          </mxGeometry>
        </mxCell>
        <mxCell id="30" value="Returns output (plain text or JSON)" style="verticalAlign=bottom;edgeStyle=elbowEdgeStyle;elbow=vertical;curved=0;rounded=0;endArrow=block;" edge="1" parent="1" source="4" target="3">
          <mxGeometry relative="1" as="geometry">
            <Array as="points">
              <mxPoint x="1151" y="1111" />
            </Array>
          </mxGeometry>
        </mxCell>
        <mxCell id="31" value="Delivers response to Front-End (rendered in browser)" style="verticalAlign=bottom;edgeStyle=elbowEdgeStyle;elbow=vertical;curved=0;rounded=0;endArrow=block;" edge="1" parent="1" source="3" target="2">
          <mxGeometry relative="1" as="geometry">
            <Array as="points">
              <mxPoint x="590" y="1157" />
            </Array>
          </mxGeometry>
        </mxCell>
        <mxCell id="32" value="Security, Secrets, and Governance" style="fillColor=#ffff88;strokeColor=#9E916F;" vertex="1" parent="1">
          <mxGeometry x="221" y="1197" width="391" height="49" as="geometry" />
        </mxCell>
        <mxCell id="33" value="All secrets are stored in Azure Key Vault" style="fillColor=#ffff88;strokeColor=#9E916F;" vertex="1" parent="1">
          <mxGeometry x="986" y="1246" width="308" height="49" as="geometry" />
        </mxCell>
        <mxCell id="34" value="Accesses secrets via Managed Identity" style="fillColor=#ffff88;strokeColor=#9E916F;" vertex="1" parent="1">
          <mxGeometry x="1344" y="1295" width="301" height="49" as="geometry" />
        </mxCell>
        <mxCell id="35" value="Protected by Private Endpoints" style="fillColor=#ffff88;strokeColor=#9E916F;" vertex="1" parent="1">
          <mxGeometry x="1727" y="1344" width="244" height="49" as="geometry" />
        </mxCell>
        <mxCell id="36" value="Protected by Private Endpoints" style="fillColor=#ffff88;strokeColor=#9E916F;" vertex="1" parent="1">
          <mxGeometry x="2109" y="1393" width="244" height="49" as="geometry" />
        </mxCell>
        <mxCell id="37" value="Protected by Private Endpoints" style="fillColor=#ffff88;strokeColor=#9E916F;" vertex="1" parent="1">
          <mxGeometry x="2403" y="1442" width="244" height="49" as="geometry" />
        </mxCell>
        <mxCell id="38" value="Optional: Microsoft Defender for APIs" style="fillColor=#ffff88;strokeColor=#9E916F;" vertex="1" parent="1">
          <mxGeometry x="986" y="1491" width="291" height="49" as="geometry" />
        </mxCell>
        <mxCell id="39" value="Optional: Microsoft Purview for compliance" style="fillColor=#ffff88;strokeColor=#9E916F;" vertex="1" parent="1">
          <mxGeometry x="1727" y="1540" width="332" height="49" as="geometry" />
        </mxCell>
      </root>
    </mxGraphModel>
  </diagram>
</mxfile>
